<?xml version="1.0" encoding="utf-8"?>
<!-- Generator: Adobe Illustrator 25.4.1, SVG Export Plug-In . SVG Version: 6.00 Build 0)  -->
<svg version="1.1" id="Capa_1" xmlns="http://www.w3.org/2000/svg" xmlns:xlink="http://www.w3.org/1999/xlink" x="0px" y="0px"
	 viewBox="0 0 640 480" style="enable-background:new 0 0 640 480;" xml:space="preserve">
<style type="text/css">
	.st0{fill:#47476D;}
	.st1{fill:#FFFFFF;}
	.st2{fill:#FECB00;}
	.st3{font-family:'Montserrat-Black';}
	.st4{font-size:22.1316px;}
	.st5{fill:none;stroke:#FECB00;stroke-miterlimit:10;stroke-dasharray:4;}
	.st6{fill:#646490;}
	.st7{fill:#FFA14D;}
	.st8{fill:none;stroke:#FECB00;stroke-miterlimit:10;}
	.st9{fill:none;stroke:#FECB00;stroke-miterlimit:10;stroke-dasharray:3.5205,3.5205;}
	.st10{fill:none;stroke:#FECB00;stroke-miterlimit:10;stroke-dasharray:4.0885,4.0885;}
	.st11{fill:none;stroke:#FECB00;stroke-miterlimit:10;stroke-dasharray:3.585,3.585;}
	.st12{fill:#00B3CE;}
	.st13{fill:none;stroke:#FECB00;stroke-miterlimit:10;stroke-dasharray:4.3999,4.3999;}
	.st14{fill:none;stroke:#FECB00;stroke-miterlimit:10;stroke-dasharray:3.886,3.886;}
	.st15{fill:none;stroke:#FECB00;stroke-miterlimit:10;stroke-dasharray:3.2269,3.2269;}
	.st16{fill:none;stroke:#FECB00;stroke-miterlimit:10;stroke-dasharray:3.8782,3.8782;}
	.st17{fill:none;stroke:#FECB00;stroke-miterlimit:10;stroke-dasharray:3.805,3.805;}
	.st18{fill:none;stroke:#FECB00;stroke-miterlimit:10;stroke-dasharray:4.3083,4.3083;}
</style>
<g>
	<g>
		<rect x="471.7" y="60.8" class="st0" width="137.1" height="269.4"/>
		<rect x="487.4" y="118.1" class="st1" width="102.9" height="10.9"/>
		<rect x="487.4" y="142.3" class="st1" width="68.1" height="10.9"/>
		<rect x="565.6" y="142.3" class="st2" width="24.7" height="10.9"/>
		<rect x="526.5" y="166.5" class="st2" width="63.8" height="10.9"/>
		<rect x="487.4" y="166.5" class="st1" width="29.9" height="10.9"/>
		<rect x="487.4" y="190.8" class="st1" width="54.4" height="10.9"/>
		<rect x="550.2" y="190.8" class="st2" width="40.1" height="10.9"/>
		<rect x="517.2" y="215" class="st2" width="73.1" height="10.9"/>
		<rect x="487.4" y="215" class="st1" width="22.1" height="10.9"/>
		<rect x="487.4" y="239.2" class="st1" width="44.2" height="10.9"/>
		<rect x="538.8" y="239.2" class="st2" width="51.5" height="10.9"/>
		<g>
			<g>
				<path class="st2" d="M587.3,303.7v3.1l-11.3,4.3v-3l7.9-2.9l-7.9-2.9v-2.9L587.3,303.7z"/>
			</g>
			<g>
				<path class="st2" d="M555.2,299.4v2.9l-7.9,2.9l7.9,2.9v3l-11.3-4.3v-3.1L555.2,299.4z"/>
			</g>
			<g>
				<path class="st2" d="M568.6,291.1h3.5l-8.4,23.9h-3.5L568.6,291.1z"/>
			</g>
		</g>
		<g>
			<g>
				<path class="st2" d="M535.5,93.4v4l-14.8,5.6v-3.9l10.3-3.8l-10.3-3.8v-3.8L535.5,93.4z"/>
			</g>
			<g>
				<path class="st2" d="M508.4,87.8v3.8L498,95.4l10.3,3.8v3.9l-14.8-5.6v-4L508.4,87.8z"/>
			</g>
		</g>
	</g>
	<g>
		<g>
			<path class="st1" d="M476.2,39.1c-0.4,0-0.7-0.1-0.9-0.3c-0.2-0.2-0.3-0.5-0.3-0.9V20.2c0-0.4,0.1-0.7,0.3-0.9
				c0.2-0.2,0.5-0.3,0.9-0.3c0.4,0,0.7,0.1,0.9,0.3c0.2,0.2,0.3,0.5,0.3,0.9v7.7h11.8v-7.7c0-0.4,0.1-0.7,0.3-0.9
				c0.2-0.2,0.5-0.3,0.9-0.3s0.7,0.1,0.9,0.3c0.2,0.2,0.3,0.5,0.3,0.9v17.7c0,0.4-0.1,0.7-0.3,0.9s-0.5,0.3-0.9,0.3
				s-0.7-0.1-0.9-0.3s-0.3-0.5-0.3-0.9v-8h-11.8v8c0,0.4-0.1,0.7-0.3,0.9C476.9,39,476.6,39.1,476.2,39.1z"/>
			<path class="st1" d="M502.2,39.1c-0.4,0-0.6-0.1-0.8-0.3c-0.2-0.2-0.3-0.5-0.3-0.9V21.2h-6.3c-0.3,0-0.6-0.1-0.8-0.3
				c-0.2-0.2-0.3-0.4-0.3-0.7c0-0.3,0.1-0.6,0.3-0.7c0.2-0.2,0.4-0.3,0.8-0.3h14.9c0.3,0,0.6,0.1,0.8,0.3c0.2,0.2,0.3,0.4,0.3,0.7
				c0,0.3-0.1,0.6-0.3,0.7c-0.2,0.2-0.4,0.3-0.8,0.3h-6.3v16.7c0,0.4-0.1,0.7-0.3,0.9S502.6,39.1,502.2,39.1z"/>
			<path class="st1" d="M514.2,39.1c-0.3,0-0.6-0.1-0.8-0.3s-0.3-0.5-0.3-0.8V20.1c0-0.4,0.1-0.7,0.3-0.8c0.2-0.2,0.4-0.3,0.8-0.3
				c0.3,0,0.5,0.1,0.7,0.2c0.2,0.1,0.3,0.3,0.5,0.6l7.6,14.4h-0.8l7.6-14.4c0.1-0.3,0.3-0.5,0.5-0.6c0.2-0.1,0.4-0.2,0.7-0.2
				s0.6,0.1,0.8,0.3c0.2,0.2,0.3,0.5,0.3,0.8v17.8c0,0.4-0.1,0.6-0.3,0.8c-0.2,0.2-0.4,0.3-0.8,0.3c-0.3,0-0.6-0.1-0.8-0.3
				c-0.2-0.2-0.3-0.5-0.3-0.8V22.3h0.7l-7,13.1c-0.1,0.2-0.3,0.4-0.4,0.5c-0.1,0.1-0.3,0.2-0.6,0.2c-0.3,0-0.5-0.1-0.6-0.2
				c-0.1-0.1-0.3-0.3-0.4-0.5l-7.1-13.1h0.7v15.7c0,0.4-0.1,0.6-0.3,0.8S514.5,39.1,514.2,39.1z"/>
			<path class="st1" d="M538.1,38.9c-0.4,0-0.7-0.1-0.9-0.3c-0.2-0.2-0.3-0.5-0.3-0.9V20.3c0-0.4,0.1-0.7,0.3-0.9
				c0.2-0.2,0.5-0.3,0.9-0.3c0.4,0,0.7,0.1,0.9,0.3c0.2,0.2,0.3,0.5,0.3,0.9v16.6h9.1c0.3,0,0.6,0.1,0.8,0.3
				c0.2,0.2,0.3,0.4,0.3,0.7c0,0.3-0.1,0.6-0.3,0.7c-0.2,0.2-0.4,0.3-0.8,0.3H538.1z"/>
		</g>
	</g>
</g>
<g>
	<text transform="matrix(1.1495 0 0 1 189.7839 208.2613)" class="st1 st3 st4">&lt;/&gt;</text>
</g>
<g>
	<path class="st2" d="M429.8,105.8c0-0.1,0-0.2,0-0.3c0-0.1,0-0.2,0-0.3c1.6-0.8,3.3-1.6,4.9-2.7c1.7-1.2,3.5-2.6,5.1-4.1l-0.4-1.4
		c-0.3-1.6-1-3.1-1.5-4.6c-0.3-0.7-0.7-1.5-1-2.2c-0.3-0.8-0.7-1.4-1.2-2.1l-0.7-1.2c-2.2,0-4.5,0.3-6.5,0.7
		c-1.9,0.4-3.7,0.9-5.3,1.6l-0.5-0.5c0.6-1.7,1.2-3.5,1.6-5.3c0.4-2.1,0.7-4.3,0.7-6.5l-1.2-0.7c-0.7-0.4-1.4-0.8-2.1-1.2
		c-0.7-0.4-1.4-0.7-2.2-1c-1.5-0.6-3-1.2-4.6-1.5l-1.4-0.4c-1.6,1.6-3,3.4-4.1,5.1c-1,1.6-1.9,3.2-2.7,4.9c-0.1,0-0.2,0-0.3,0
		c-0.1,0-0.2,0-0.3,0c-0.7-1.6-1.6-3.3-2.7-4.9c-1.2-1.7-2.6-3.5-4.1-5.1l-1.4,0.4c-1.6,0.3-3.1,0.9-4.6,1.5c-0.7,0.3-1.5,0.7-2.2,1
		c-0.7,0.3-1.4,0.7-2.1,1.2l-1.2,0.7c0,2.2,0.3,4.5,0.7,6.5c0.4,1.9,0.9,3.6,1.6,5.3c-0.2,0.2-0.3,0.3-0.5,0.5
		c-1.7-0.6-3.5-1.2-5.3-1.6c-2.1-0.4-4.3-0.7-6.5-0.7l-0.8,1.2c-0.4,0.7-0.8,1.4-1.2,2.1c-0.3,0.7-0.7,1.4-1,2.2
		c-0.6,1.5-1.2,3-1.5,4.6l-0.4,1.4c1.6,1.6,3.4,3,5.1,4.1c1.6,1,3.2,1.9,4.9,2.7c0,0.1,0,0.2,0,0.3c0,0.1,0,0.2,0,0.3
		c-1.6,0.7-3.3,1.6-4.9,2.7c-1.7,1.2-3.5,2.6-5.1,4.1l0.4,1.4c0.3,1.6,0.9,3.1,1.5,4.6c0.3,0.7,0.7,1.5,1,2.2
		c0.3,0.7,0.7,1.4,1.2,2.1l0.8,1.2c2.2,0,4.5-0.3,6.5-0.7c1.9-0.4,3.6-0.9,5.3-1.6c0.1,0.2,0.3,0.3,0.5,0.5
		c-0.6,1.7-1.2,3.5-1.6,5.3c-0.4,2.1-0.7,4.3-0.7,6.5l1.2,0.8c0.7,0.4,1.4,0.8,2.1,1.1c0.7,0.4,1.5,0.7,2.2,1c1.5,0.6,3,1.2,4.6,1.5
		l1.4,0.4c1.6-1.6,3-3.4,4.1-5.1c1.1-1.6,1.9-3.2,2.7-4.9c0.1,0,0.2,0,0.3,0c0.1,0,0.2,0,0.3,0c0.8,1.6,1.6,3.3,2.7,4.9
		c1.2,1.7,2.6,3.5,4.1,5.1l1.4-0.4c1.6-0.3,3.1-0.9,4.6-1.5c0.8-0.3,1.5-0.7,2.2-1c0.7-0.3,1.4-0.7,2.1-1.1l1.2-0.8
		c0-2.2-0.3-4.5-0.7-6.5c-0.4-1.9-0.9-3.6-1.6-5.3c0.2-0.1,0.3-0.3,0.5-0.5c1.7,0.6,3.5,1.2,5.3,1.6c2.1,0.4,4.3,0.7,6.5,0.7
		l0.7-1.2c0.4-0.7,0.8-1.4,1.2-2.1c0.4-0.7,0.7-1.5,1-2.2c0.6-1.5,1.2-3,1.5-4.6l0.4-1.4c-1.6-1.6-3.4-2.9-5.1-4.1
		C433,107.5,431.4,106.6,429.8,105.8z M406.3,116.8c-6.2,0-11.2-5-11.2-11.2c0-6.2,5-11.2,11.2-11.2c6.2,0,11.2,5,11.2,11.2
		C417.5,111.7,412.5,116.8,406.3,116.8z"/>
	<polyline class="st5" points="374,122.9 298.1,122.9 298.1,197.6 319.2,197.6 	"/>
	<g>
		<rect x="321" y="237.6" class="st1" width="41.7" height="7.5"/>
		<rect x="321" y="251.4" class="st1" width="64.1" height="7.5"/>
		<rect x="321" y="265.2" class="st1" width="21.8" height="7.5"/>
		<rect x="351.8" y="265.2" class="st2" width="21.8" height="7.5"/>
		<rect x="381.4" y="265.2" class="st2" width="31.4" height="7.5"/>
		<rect x="393.8" y="251.4" class="st2" width="19.1" height="7.5"/>
		<rect x="371.1" y="237.6" class="st2" width="41.7" height="7.5"/>
	</g>
	<rect x="426.7" y="189.3" class="st1" width="1.4" height="83.1"/>
</g>
<g>
	<rect x="321.7" y="192.4" class="st1" width="42.9" height="7.7"/>
	<rect x="321.7" y="206.6" class="st1" width="66" height="7.7"/>
	<rect x="321.7" y="220.8" class="st1" width="22.5" height="7.7"/>
	<rect x="353.3" y="220.8" class="st2" width="22.5" height="7.7"/>
	<rect x="383.8" y="220.8" class="st2" width="32.3" height="7.7"/>
	<rect x="396.5" y="206.6" class="st2" width="19.6" height="7.7"/>
	<rect x="373.2" y="192.4" class="st2" width="42.9" height="7.7"/>
</g>
<g>
	<g>
		<g>
			<path class="st6" d="M62.3,392.5c-1.4-1.4-3-2.5-4.8-3.3c0,0-0.1,0-0.1,0c-2.5-1.1-5.2-1.7-8-1.5c-1.9,0.1-3.8,0.5-5.6,1.3
				c-0.1,0-0.2,0.1-0.3,0.1c-3.3,1.5-5.9,3.9-7.6,6.7c-2.8,4.6-3.3,10.4-1,15.7c3.8,8.5,13.8,12.4,22.4,8.6
				c7.8-3.5,11.7-12.2,9.4-20.2c-0.2-0.7-0.5-1.5-0.8-2.2C65,395.7,63.8,393.9,62.3,392.5z M55.2,415.3c-5.9,2.6-12.9,0-15.5-5.9
				c-1.6-3.5-1.3-7.4,0.5-10.5c0,0,0,0,0-0.1c1.2-2.1,3-3.9,5.4-4.9c0.4-0.2,0.9-0.4,1.4-0.5c0,0,0.1,0,0.1,0c2.4-0.7,4.8-0.6,7,0.1
				c0,0,0,0,0,0c1.9,0.6,3.6,1.8,5,3.3c0.8,0.9,1.5,1.9,2,3.1c0.3,0.7,0.6,1.4,0.7,2.2C63.1,407.3,60.4,413,55.2,415.3z"/>
		</g>
		<path class="st2" d="M57.5,389.2c1.8,0.8,3.4,1.9,4.8,3.3c1.5,1.4,2.7,3.2,3.6,5.2c0.3,0.7,0.6,1.4,0.8,2.2l-4.8,2.1
			c-0.2-0.7-0.4-1.5-0.7-2.2c-0.5-1.1-1.2-2.2-2-3.1c-1.4-1.5-3.1-2.6-5-3.3l0,0l0,0L57.5,389.2"/>
		<line class="st7" x1="57.5" y1="389.2" x2="54.2" y2="393.4"/>
		<path class="st2" d="M54.2,393.4L54.2,393.4c-2.2-0.7-4.7-0.8-7-0.1c0,0-0.1,0-0.1,0l-3.1-4.4c1.8-0.8,3.7-1.2,5.6-1.3
			c2.8-0.2,5.5,0.4,8,1.5"/>
	</g>
	<g>
		<g>
			<line class="st8" x1="51.8" y1="421.5" x2="51.8" y2="423.5"/>
			<line class="st9" x1="51.8" y1="427" x2="51.8" y2="446.4"/>
			<polyline class="st8" points="51.8,448.1 51.8,450.1 53.8,450.1 			"/>
			<line class="st10" x1="57.8" y1="450.1" x2="96.7" y2="450.1"/>
			<polyline class="st8" points="98.7,450.1 100.7,450.1 100.7,448.1 			"/>
			<line class="st11" x1="100.7" y1="444.6" x2="100.7" y2="424.8"/>
			<line class="st8" x1="100.7" y1="423" x2="100.7" y2="421"/>
		</g>
	</g>
	<g>
		<rect x="82.9" y="248.3" class="st0" width="143.7" height="171.3"/>
		<rect x="82.9" y="240" class="st6" width="143.7" height="21.7"/>
		<g>
			<g>
				<path class="st2" d="M209.9,407.9v1.4l-5.2,2v-1.4l3.6-1.3l-3.6-1.3v-1.3L209.9,407.9z"/>
			</g>
			<g>
				<path class="st2" d="M195.2,405.9v1.3l-3.6,1.3l3.6,1.3v1.4l-5.2-2v-1.4L195.2,405.9z"/>
			</g>
			<g>
				<g>
					<path class="st2" d="M198.5,412.3c0,0.1-0.1,0.2-0.2,0.2c-0.1,0-0.1,0.1-0.2,0.1s-0.2,0-0.2-0.1c-0.1,0-0.1-0.1-0.1-0.2
						c0-0.1,0-0.2,0-0.3l2.8-8.6c0-0.1,0.1-0.2,0.2-0.2s0.1-0.1,0.2-0.1s0.2,0,0.2,0.1c0.1,0,0.1,0.1,0.1,0.2c0,0.1,0,0.2,0,0.3
						L198.5,412.3z"/>
				</g>
			</g>
		</g>
		<g>
			<g>
				<path class="st2" d="M116.9,275.6v1.8l-6.4,2.4v-1.7l4.5-1.6l-4.5-1.7v-1.7L116.9,275.6z"/>
			</g>
			<g>
				<path class="st2" d="M105.1,273.1v1.7l-4.5,1.7l4.5,1.6v1.7l-6.4-2.4v-1.8L105.1,273.1z"/>
			</g>
		</g>
		<g>
			<g>
				<path class="st1" d="M92.9,255.5c-0.2,0-0.3,0-0.3-0.1c-0.1-0.1-0.1-0.2-0.1-0.3v-6.3c0-0.2,0-0.3,0.1-0.3
					c0.1-0.1,0.2-0.1,0.3-0.1h2c1.2,0,2.1,0.3,2.7,0.9c0.6,0.6,1,1.5,1,2.7c0,0.6-0.1,1.1-0.2,1.6s-0.4,0.8-0.7,1.1
					s-0.7,0.5-1.2,0.7c-0.5,0.2-1,0.2-1.6,0.2H92.9z M93.3,254.8h1.5c0.5,0,0.9-0.1,1.3-0.2c0.4-0.1,0.6-0.3,0.9-0.5
					c0.2-0.2,0.4-0.5,0.5-0.9c0.1-0.4,0.2-0.8,0.2-1.3c0-1-0.2-1.7-0.7-2.2c-0.5-0.5-1.2-0.7-2.1-0.7h-1.5V254.8z"/>
				<path class="st1" d="M100.6,255.5c-0.2,0-0.3,0-0.3-0.1c-0.1-0.1-0.1-0.2-0.1-0.3v-6.3c0-0.2,0-0.3,0.1-0.3
					c0.1-0.1,0.2-0.1,0.3-0.1h3.8c0.1,0,0.2,0,0.3,0.1c0.1,0.1,0.1,0.1,0.1,0.3c0,0.1,0,0.2-0.1,0.3s-0.2,0.1-0.3,0.1H101v2.5h3.3
					c0.1,0,0.2,0,0.3,0.1c0.1,0.1,0.1,0.1,0.1,0.3s0,0.2-0.1,0.3c-0.1,0.1-0.2,0.1-0.3,0.1H101v2.6h3.5c0.1,0,0.2,0,0.3,0.1
					c0.1,0.1,0.1,0.1,0.1,0.3c0,0.1,0,0.2-0.1,0.3s-0.2,0.1-0.3,0.1H100.6z"/>
				<path class="st1" d="M108.5,255.6c-0.3,0-0.6,0-0.9-0.1c-0.3-0.1-0.6-0.1-0.9-0.2c-0.3-0.1-0.5-0.2-0.7-0.4
					c-0.1-0.1-0.1-0.1-0.2-0.2s0-0.2,0-0.2s0.1-0.1,0.1-0.2s0.1-0.1,0.2-0.1s0.2,0,0.2,0.1c0.3,0.2,0.6,0.4,1,0.5
					c0.4,0.1,0.7,0.1,1.2,0.1c0.6,0,1.1-0.1,1.4-0.3c0.3-0.2,0.4-0.5,0.4-0.9c0-0.3-0.1-0.6-0.3-0.7s-0.6-0.3-1.1-0.4l-1.1-0.2
					c-0.6-0.1-1.1-0.4-1.4-0.7c-0.3-0.3-0.5-0.7-0.5-1.3c0-0.3,0.1-0.6,0.2-0.9c0.1-0.3,0.3-0.5,0.5-0.7c0.2-0.2,0.5-0.3,0.8-0.4
					c0.3-0.1,0.7-0.2,1.1-0.2c0.4,0,0.8,0.1,1.2,0.2c0.4,0.1,0.7,0.3,1,0.5c0.1,0.1,0.1,0.1,0.2,0.2c0,0.1,0,0.2,0,0.2
					s-0.1,0.1-0.1,0.2c-0.1,0-0.1,0.1-0.2,0.1s-0.2,0-0.3-0.1c-0.3-0.2-0.6-0.4-0.9-0.4c-0.3-0.1-0.6-0.1-1-0.1
					c-0.4,0-0.7,0.1-0.9,0.2c-0.3,0.1-0.5,0.3-0.6,0.5c-0.1,0.2-0.2,0.5-0.2,0.7c0,0.3,0.1,0.6,0.3,0.8c0.2,0.2,0.5,0.3,1,0.4
					l1.1,0.2c0.7,0.1,1.2,0.4,1.5,0.7c0.3,0.3,0.5,0.7,0.5,1.2c0,0.3-0.1,0.6-0.2,0.8c-0.1,0.3-0.3,0.5-0.5,0.7
					c-0.2,0.2-0.5,0.3-0.8,0.4C109.3,255.5,108.9,255.6,108.5,255.6z"/>
				<path class="st1" d="M112.3,255.6c-0.1,0-0.2,0-0.3-0.1s-0.1-0.1-0.1-0.2c0-0.1,0-0.2,0.1-0.3l2.8-6.5c0.1-0.1,0.1-0.2,0.2-0.3
					s0.2-0.1,0.3-0.1s0.2,0,0.3,0.1c0.1,0.1,0.2,0.2,0.2,0.3l2.8,6.5c0.1,0.1,0.1,0.2,0.1,0.3c0,0.1,0,0.2-0.1,0.2s-0.1,0.1-0.3,0.1
					c-0.1,0-0.2,0-0.3-0.1c-0.1-0.1-0.1-0.2-0.2-0.3l-0.8-1.8l0.4,0.2h-4.4l0.4-0.2l-0.8,1.8c-0.1,0.1-0.1,0.2-0.2,0.3
					S112.4,255.6,112.3,255.6z M115.3,249.2l-1.7,3.9l-0.2-0.2h3.8l-0.2,0.2L115.3,249.2L115.3,249.2z"/>
				<path class="st1" d="M120.4,255.6c-0.1,0-0.2,0-0.3-0.1c-0.1-0.1-0.1-0.2-0.1-0.3v-6.5c0-0.1,0-0.3,0.1-0.3s0.2-0.1,0.3-0.1h2.4
					c0.8,0,1.4,0.2,1.8,0.5s0.6,0.9,0.6,1.6c0,0.4-0.1,0.8-0.3,1.1c-0.2,0.3-0.5,0.5-0.8,0.7c-0.4,0.2-0.8,0.2-1.3,0.2l0.1-0.1h0.2
					c0.3,0,0.5,0.1,0.7,0.2c0.2,0.1,0.4,0.4,0.5,0.7l1,1.8c0.1,0.1,0.1,0.2,0.1,0.3c0,0.1,0,0.2-0.1,0.2s-0.2,0.1-0.3,0.1
					c-0.1,0-0.2,0-0.3-0.1c-0.1-0.1-0.1-0.1-0.2-0.2l-1.1-2.1c-0.2-0.3-0.3-0.5-0.5-0.6c-0.2-0.1-0.5-0.1-0.8-0.1h-1.3v2.7
					c0,0.1,0,0.2-0.1,0.3C120.7,255.5,120.6,255.6,120.4,255.6z M120.8,251.7h1.9c0.6,0,1-0.1,1.3-0.4c0.3-0.2,0.4-0.6,0.4-1.1
					c0-0.5-0.1-0.8-0.4-1c-0.3-0.2-0.7-0.4-1.3-0.4h-1.9V251.7z"/>
				<path class="st1" d="M127.3,255.6c-0.1,0-0.2,0-0.3-0.1c-0.1-0.1-0.1-0.2-0.1-0.3v-6.5c0-0.1,0-0.3,0.1-0.3s0.2-0.1,0.3-0.1h2.4
					c0.8,0,1.4,0.2,1.8,0.5s0.6,0.9,0.6,1.6c0,0.4-0.1,0.8-0.3,1.1c-0.2,0.3-0.5,0.5-0.8,0.7c-0.4,0.2-0.8,0.2-1.3,0.2l0.1-0.1h0.2
					c0.3,0,0.5,0.1,0.7,0.2c0.2,0.1,0.4,0.4,0.5,0.7l1,1.8c0.1,0.1,0.1,0.2,0.1,0.3c0,0.1,0,0.2-0.1,0.2s-0.2,0.1-0.3,0.1
					c-0.1,0-0.2,0-0.3-0.1c-0.1-0.1-0.1-0.1-0.2-0.2l-1.1-2.1c-0.2-0.3-0.3-0.5-0.5-0.6c-0.2-0.1-0.5-0.1-0.8-0.1h-1.3v2.7
					c0,0.1,0,0.2-0.1,0.3C127.6,255.5,127.5,255.6,127.3,255.6z M127.7,251.7h1.9c0.6,0,1-0.1,1.3-0.4c0.3-0.2,0.4-0.6,0.4-1.1
					c0-0.5-0.1-0.8-0.4-1c-0.3-0.2-0.7-0.4-1.3-0.4h-1.9V251.7z"/>
				<path class="st1" d="M136.9,255.6c-0.7,0-1.3-0.2-1.8-0.5c-0.5-0.3-0.9-0.7-1.2-1.3c-0.3-0.6-0.4-1.2-0.4-2
					c0-0.6,0.1-1.1,0.2-1.6c0.2-0.5,0.4-0.8,0.7-1.2c0.3-0.3,0.6-0.6,1-0.7c0.4-0.2,0.9-0.3,1.4-0.3c0.7,0,1.3,0.2,1.8,0.5
					s0.9,0.7,1.2,1.3c0.3,0.6,0.4,1.2,0.4,2c0,0.6-0.1,1.1-0.2,1.6s-0.4,0.9-0.7,1.2s-0.6,0.6-1,0.7
					C137.8,255.5,137.4,255.6,136.9,255.6z M136.9,254.8c0.5,0,1-0.1,1.3-0.4c0.4-0.2,0.6-0.6,0.8-1c0.2-0.4,0.3-1,0.3-1.6
					c0-0.9-0.2-1.7-0.6-2.2c-0.4-0.5-1-0.8-1.8-0.8c-0.5,0-0.9,0.1-1.3,0.4c-0.4,0.2-0.6,0.6-0.8,1c-0.2,0.4-0.3,1-0.3,1.6
					c0,0.9,0.2,1.7,0.6,2.2C135.5,254.6,136.1,254.8,136.9,254.8z"/>
				<path class="st1" d="M142.1,255.5c-0.1,0-0.2,0-0.3-0.1s-0.1-0.2-0.1-0.3v-6.4c0-0.1,0-0.3,0.1-0.3c0.1-0.1,0.2-0.1,0.3-0.1
					c0.1,0,0.2,0,0.3,0.1c0.1,0.1,0.1,0.2,0.1,0.3v6.1h3.4c0.1,0,0.2,0,0.3,0.1c0.1,0.1,0.1,0.2,0.1,0.3s0,0.2-0.1,0.3
					c-0.1,0.1-0.2,0.1-0.3,0.1H142.1z"/>
				<path class="st1" d="M147.7,255.5c-0.1,0-0.2,0-0.3-0.1s-0.1-0.2-0.1-0.3v-6.4c0-0.1,0-0.3,0.1-0.3c0.1-0.1,0.2-0.1,0.3-0.1
					c0.1,0,0.2,0,0.3,0.1c0.1,0.1,0.1,0.2,0.1,0.3v6.1h3.4c0.1,0,0.2,0,0.3,0.1c0.1,0.1,0.1,0.2,0.1,0.3s0,0.2-0.1,0.3
					c-0.1,0.1-0.2,0.1-0.3,0.1H147.7z"/>
				<path class="st1" d="M156,255.6c-0.7,0-1.3-0.2-1.8-0.5c-0.5-0.3-0.9-0.7-1.2-1.3c-0.3-0.6-0.4-1.2-0.4-2c0-0.6,0.1-1.1,0.2-1.6
					c0.2-0.5,0.4-0.8,0.7-1.2c0.3-0.3,0.6-0.6,1-0.7c0.4-0.2,0.9-0.3,1.4-0.3c0.7,0,1.3,0.2,1.8,0.5s0.9,0.7,1.2,1.3
					c0.3,0.6,0.4,1.2,0.4,2c0,0.6-0.1,1.1-0.2,1.6s-0.4,0.9-0.7,1.2s-0.6,0.6-1,0.7C156.9,255.5,156.5,255.6,156,255.6z M156,254.8
					c0.5,0,1-0.1,1.3-0.4c0.4-0.2,0.6-0.6,0.8-1c0.2-0.4,0.3-1,0.3-1.6c0-0.9-0.2-1.7-0.6-2.2c-0.4-0.5-1-0.8-1.8-0.8
					c-0.5,0-0.9,0.1-1.3,0.4c-0.4,0.2-0.6,0.6-0.8,1c-0.2,0.4-0.3,1-0.3,1.6c0,0.9,0.2,1.7,0.6,2.2
					C154.6,254.6,155.2,254.8,156,254.8z"/>
				<path class="st1" d="M165.8,255.6c-0.1,0-0.2,0-0.3-0.1c-0.1-0.1-0.1-0.2-0.2-0.3l-2.3-6.5c0-0.1,0-0.3,0-0.4
					c0.1-0.1,0.2-0.1,0.3-0.1c0.1,0,0.2,0,0.3,0.1s0.1,0.1,0.2,0.3l2.1,6.3h-0.4l2.2-6.2c0-0.1,0.1-0.2,0.2-0.3
					c0.1-0.1,0.2-0.1,0.3-0.1c0.1,0,0.2,0,0.3,0.1c0.1,0.1,0.1,0.2,0.2,0.3l2.1,6.2h-0.3l2.2-6.3c0-0.1,0.1-0.2,0.2-0.3
					c0.1-0.1,0.2-0.1,0.3-0.1c0.1,0,0.3,0,0.3,0.1c0.1,0.1,0.1,0.2,0,0.4l-2.3,6.5c0,0.1-0.1,0.2-0.2,0.3c-0.1,0.1-0.2,0.1-0.3,0.1
					c-0.1,0-0.2,0-0.3-0.1c-0.1-0.1-0.1-0.2-0.2-0.3l-2.1-6h0.2l-2.1,6c0,0.1-0.1,0.2-0.2,0.3C166,255.5,165.9,255.6,165.8,255.6z"
					/>
				<path class="st1" d="M175.3,255.5c-0.2,0-0.3,0-0.3-0.1c-0.1-0.1-0.1-0.2-0.1-0.3v-6.3c0-0.2,0-0.3,0.1-0.3
					c0.1-0.1,0.2-0.1,0.3-0.1h3.8c0.1,0,0.2,0,0.3,0.1c0.1,0.1,0.1,0.1,0.1,0.3c0,0.1,0,0.2-0.1,0.3s-0.2,0.1-0.3,0.1h-3.5v2.5h3.3
					c0.1,0,0.2,0,0.3,0.1c0.1,0.1,0.1,0.1,0.1,0.3s0,0.2-0.1,0.3c-0.1,0.1-0.2,0.1-0.3,0.1h-3.3v2.6h3.5c0.1,0,0.2,0,0.3,0.1
					c0.1,0.1,0.1,0.1,0.1,0.3c0,0.1,0,0.2-0.1,0.3s-0.2,0.1-0.3,0.1H175.3z"/>
				<path class="st1" d="M181.3,255.5c-0.2,0-0.3,0-0.3-0.1c-0.1-0.1-0.1-0.2-0.1-0.3v-6.3c0-0.2,0-0.3,0.1-0.3
					c0.1-0.1,0.2-0.1,0.3-0.1h2.4c0.5,0,0.9,0.1,1.3,0.2c0.3,0.1,0.6,0.4,0.8,0.6c0.2,0.3,0.3,0.6,0.3,1c0,0.5-0.1,0.8-0.4,1.1
					c-0.3,0.3-0.6,0.5-1.1,0.6v-0.1c0.5,0.1,0.9,0.2,1.2,0.6c0.3,0.3,0.4,0.7,0.4,1.2c0,0.6-0.2,1.1-0.6,1.5s-1,0.5-1.8,0.5H181.3z
					 M181.7,251.5h2c0.5,0,0.9-0.1,1.2-0.3c0.3-0.2,0.4-0.5,0.4-0.9c0-0.4-0.1-0.7-0.4-1s-0.7-0.3-1.2-0.3h-2V251.5z M181.7,254.8
					h2.1c0.5,0,1-0.1,1.2-0.3c0.3-0.2,0.4-0.6,0.4-1c0-0.5-0.1-0.8-0.4-1c-0.3-0.2-0.7-0.3-1.2-0.3h-2.1V254.8z"/>
			</g>
		</g>
		<g>
			<g>
				<rect x="107.7" y="290.3" class="st12" width="42.2" height="7.7"/>
				<rect x="155.9" y="290.3" class="st2" width="21.1" height="7.7"/>
				<rect x="181.9" y="290.3" class="st1" width="29.1" height="7.7"/>
				<rect x="107.7" y="304.1" class="st12" width="19.7" height="7.7"/>
				<rect x="132.8" y="304.1" class="st2" width="33.7" height="7.7"/>
				<rect x="171.9" y="304.1" class="st1" width="39" height="7.7"/>
				<rect x="107.7" y="317.9" class="st12" width="25.9" height="7.7"/>
				<rect x="137.9" y="317.9" class="st2" width="48.8" height="7.7"/>
				<rect x="191.9" y="317.9" class="st1" width="19" height="7.7"/>
				<rect x="107.7" y="331.7" class="st12" width="32.7" height="7.7"/>
				<rect x="145.2" y="331.7" class="st2" width="31.8" height="7.7"/>
				<rect x="181.9" y="331.7" class="st1" width="29.1" height="7.7"/>
				<rect x="107.7" y="345.5" class="st12" width="14.3" height="7.7"/>
				<rect x="126.9" y="345.5" class="st2" width="28.4" height="7.7"/>
				<rect x="159.7" y="345.5" class="st1" width="51.2" height="7.7"/>
				<rect x="107.7" y="359.3" class="st12" width="41" height="7.7"/>
				<rect x="153.8" y="359.3" class="st2" width="12.6" height="7.7"/>
				<rect x="171.9" y="359.3" class="st1" width="39" height="7.7"/>
				<rect x="107.7" y="373.1" class="st12" width="53.4" height="7.7"/>
				<rect x="165.6" y="373.1" class="st2" width="21.9" height="7.7"/>
				<rect x="191.9" y="373.1" class="st1" width="19" height="7.7"/>
				<rect x="107.7" y="386.9" class="st12" width="16.4" height="7.7"/>
				<rect x="128.8" y="386.9" class="st2" width="19.9" height="7.7"/>
				<rect x="153.8" y="386.9" class="st1" width="57.1" height="7.7"/>
			</g>
			<rect x="216.6" y="290.3" class="st1" width="1.6" height="104.4"/>
			<circle class="st1" cx="94.4" cy="294.1" r="3.9"/>
			<circle class="st1" cx="94.4" cy="307.9" r="3.9"/>
			<circle class="st1" cx="94.4" cy="321.7" r="3.9"/>
			<circle class="st1" cx="94.4" cy="335.5" r="3.9"/>
			<circle class="st1" cx="94.4" cy="349.4" r="3.9"/>
			<circle class="st1" cx="94.4" cy="363.2" r="3.9"/>
			<circle class="st1" cx="94.4" cy="377" r="3.9"/>
			<circle class="st1" cx="94.4" cy="390.8" r="3.9"/>
		</g>
		<path class="st2" d="M220.1,252.1c0,2.2-1.8,3.9-3.9,3.9c-2.2,0-3.9-1.8-3.9-3.9c0-2.2,1.8-3.9,3.9-3.9
			C218.4,248.1,220.1,249.9,220.1,252.1z"/>
	</g>
	<path class="st1" d="M210.4,252c0,2.2-1.8,4-4,4c-2.2,0-4-1.8-4-4c0-2.2,1.8-4,4-4C208.6,248,210.4,249.8,210.4,252z"/>
</g>
<g>
	<rect x="390.6" y="410" class="st2" width="23.3" height="6.5"/>
	<rect x="390.6" y="398.4" class="st6" width="71.2" height="6.5"/>
	<g>
		<g>
			<line class="st8" x1="431.7" y1="417.8" x2="431.7" y2="419.8"/>
			<line class="st13" x1="431.7" y1="424.2" x2="431.7" y2="439.6"/>
			<polyline class="st8" points="431.7,441.8 431.7,443.8 433.7,443.8 			"/>
			<line class="st14" x1="437.6" y1="443.8" x2="513.4" y2="443.8"/>
			<polyline class="st8" points="515.4,443.8 517.4,443.8 517.4,441.8 			"/>
			<line class="st15" x1="517.4" y1="438.6" x2="517.4" y2="427.3"/>
			<line class="st8" x1="517.4" y1="425.7" x2="517.4" y2="423.7"/>
		</g>
	</g>
	<g>
		<g>
			<path class="st1" d="M399.6,381.4c-1.6,0-3-0.3-4.1-1c-1.1-0.7-2-1.6-2.6-2.9s-0.9-2.7-0.9-4.4c0-1.3,0.2-2.4,0.5-3.5
				c0.3-1,0.8-1.9,1.5-2.6c0.6-0.7,1.4-1.3,2.4-1.7c0.9-0.4,2-0.6,3.2-0.6c0.9,0,1.9,0.1,2.7,0.4s1.6,0.7,2.2,1.2
				c0.2,0.2,0.3,0.3,0.4,0.5c0.1,0.2,0.1,0.4,0,0.6s-0.1,0.3-0.3,0.4c-0.1,0.1-0.3,0.2-0.5,0.2s-0.4-0.1-0.6-0.2
				c-0.6-0.4-1.2-0.8-1.8-1c-0.7-0.2-1.4-0.3-2.1-0.3c-1.2,0-2.2,0.3-3.1,0.8c-0.8,0.5-1.5,1.3-1.9,2.2c-0.4,1-0.6,2.2-0.6,3.6
				s0.2,2.6,0.6,3.6c0.4,1,1.1,1.7,1.9,2.2c0.8,0.5,1.9,0.8,3.1,0.8c0.7,0,1.5-0.1,2.1-0.3c0.7-0.2,1.3-0.6,1.9-1
				c0.2-0.2,0.4-0.2,0.6-0.2s0.3,0.1,0.5,0.2c0.1,0.1,0.2,0.2,0.3,0.4c0.1,0.2,0.1,0.3,0,0.5s-0.2,0.3-0.4,0.5
				c-0.6,0.6-1.4,1-2.3,1.3C401.5,381.3,400.6,381.4,399.6,381.4z"/>
			<path class="st1" d="M413.3,381.4c-0.7,0-1.4-0.1-2.1-0.2c-0.7-0.1-1.3-0.3-1.9-0.5s-1.1-0.5-1.6-0.9c-0.2-0.1-0.3-0.3-0.4-0.5
				c-0.1-0.2-0.1-0.4,0-0.5c0-0.2,0.1-0.3,0.2-0.4c0.1-0.1,0.3-0.2,0.4-0.2c0.2,0,0.4,0,0.5,0.2c0.7,0.5,1.4,0.8,2.2,1.1
				s1.7,0.3,2.6,0.3c1.4,0,2.4-0.3,3.1-0.8c0.7-0.5,1-1.2,1-2c0-0.7-0.2-1.2-0.7-1.6c-0.5-0.4-1.3-0.7-2.4-0.9l-2.4-0.5
				c-1.4-0.3-2.5-0.8-3.2-1.5c-0.7-0.7-1.1-1.6-1.1-2.8c0-0.7,0.1-1.4,0.4-2c0.3-0.6,0.7-1.1,1.2-1.5c0.5-0.4,1.1-0.7,1.9-1
				s1.5-0.3,2.4-0.3c1,0,1.9,0.1,2.7,0.4s1.6,0.7,2.3,1.2c0.2,0.1,0.3,0.3,0.3,0.5c0.1,0.2,0.1,0.3,0,0.5c0,0.2-0.1,0.3-0.2,0.4
				c-0.1,0.1-0.3,0.2-0.4,0.2c-0.2,0-0.4,0-0.6-0.2c-0.6-0.5-1.2-0.8-1.9-1c-0.7-0.2-1.4-0.3-2.2-0.3c-0.8,0-1.5,0.1-2.1,0.4
				c-0.6,0.2-1,0.6-1.4,1.1c-0.3,0.5-0.5,1-0.5,1.6c0,0.7,0.2,1.3,0.7,1.7c0.5,0.4,1.2,0.7,2.2,0.9l2.4,0.5c1.5,0.3,2.7,0.8,3.4,1.5
				c0.7,0.7,1.1,1.5,1.1,2.6c0,0.7-0.1,1.3-0.4,1.9c-0.3,0.6-0.7,1.1-1.2,1.5c-0.5,0.4-1.1,0.7-1.9,0.9
				C415,381.3,414.2,381.4,413.3,381.4z"/>
			<path class="st1" d="M427.4,381.4c-0.7,0-1.4-0.1-2.1-0.2c-0.7-0.1-1.3-0.3-1.9-0.5s-1.1-0.5-1.6-0.9c-0.2-0.1-0.3-0.3-0.4-0.5
				c-0.1-0.2-0.1-0.4,0-0.5c0-0.2,0.1-0.3,0.2-0.4c0.1-0.1,0.3-0.2,0.4-0.2c0.2,0,0.4,0,0.5,0.2c0.7,0.5,1.4,0.8,2.2,1.1
				s1.7,0.3,2.6,0.3c1.4,0,2.4-0.3,3.1-0.8c0.7-0.5,1-1.2,1-2c0-0.7-0.2-1.2-0.7-1.6c-0.5-0.4-1.3-0.7-2.4-0.9l-2.4-0.5
				c-1.4-0.3-2.5-0.8-3.2-1.5c-0.7-0.7-1.1-1.6-1.1-2.8c0-0.7,0.1-1.4,0.4-2c0.3-0.6,0.7-1.1,1.2-1.5c0.5-0.4,1.1-0.7,1.9-1
				s1.5-0.3,2.4-0.3c1,0,1.9,0.1,2.7,0.4s1.6,0.7,2.3,1.2c0.2,0.1,0.3,0.3,0.3,0.5c0.1,0.2,0.1,0.3,0,0.5c0,0.2-0.1,0.3-0.2,0.4
				c-0.1,0.1-0.3,0.2-0.4,0.2c-0.2,0-0.4,0-0.6-0.2c-0.6-0.5-1.2-0.8-1.9-1c-0.7-0.2-1.4-0.3-2.2-0.3c-0.8,0-1.5,0.1-2.1,0.4
				c-0.6,0.2-1,0.6-1.4,1.1c-0.3,0.5-0.5,1-0.5,1.6c0,0.7,0.2,1.3,0.7,1.7c0.5,0.4,1.2,0.7,2.2,0.9l2.4,0.5c1.5,0.3,2.7,0.8,3.4,1.5
				c0.7,0.7,1.1,1.5,1.1,2.6c0,0.7-0.1,1.3-0.4,1.9c-0.3,0.6-0.7,1.1-1.2,1.5c-0.5,0.4-1.1,0.7-1.9,0.9
				C429.2,381.3,428.3,381.4,427.4,381.4z"/>
		</g>
	</g>
	<g>
		<g>
			<path class="st6" d="M536.2,397.1c-0.2-0.8-0.6-1.7-0.9-2.5c-1-2.3-2.5-4.3-4.2-6c-1.6-1.6-3.5-2.9-5.5-3.8c0,0-0.1,0-0.1-0.1
				c-2.9-1.3-6-1.9-9.2-1.7c-2.2,0.1-4.4,0.6-6.5,1.5c-0.1,0.1-0.3,0.1-0.4,0.2c-3.8,1.7-6.8,4.5-8.8,7.8c-2.5,4.1-3.4,9.1-2.5,14
				c0.3,1.4,0.7,2.8,1.3,4.2c4.4,9.9,16.1,14.4,25.9,9.9c6-2.7,10.1-8.1,11.3-14.1C537.2,403.4,537.1,400.2,536.2,397.1z
				 M522.9,415.1c-6.9,3.1-14.9,0-18-6.9c-0.3-0.6-0.5-1.1-0.6-1.7c-1.1-3.6-0.6-7.4,1.2-10.5c0,0,0-0.1,0-0.1
				c1.4-2.4,3.5-4.5,6.3-5.7c0.5-0.2,1-0.4,1.6-0.6c0.1,0,0.1,0,0.2-0.1c2.7-0.8,5.6-0.7,8.1,0.2c0,0,0,0,0,0c2.2,0.7,4.2,2,5.8,3.8
				c0.9,1,1.7,2.2,2.3,3.6c0.4,0.8,0.6,1.7,0.8,2.5c0.5,2.3,0.4,4.7-0.2,6.9C529.3,410.2,526.7,413.4,522.9,415.1z"/>
		</g>
		<path class="st2" d="M536.6,406.5h-6.2c0.6-2.2,0.8-4.6,0.2-6.9c-0.2-0.8-0.5-1.7-0.8-2.5c-0.6-1.3-1.4-2.5-2.3-3.6
			c-1.6-1.8-3.6-3.1-5.8-3.8c0,0,0,0,0,0c-2.6-0.9-5.4-1-8.1-0.2c-0.1,0-0.1,0-0.2,0.1c-0.5,0.2-1.1,0.4-1.6,0.6
			c-2.8,1.2-4.9,3.3-6.3,5.7c0,0,0,0.1,0,0.1c-1.8,3.1-2.3,6.9-1.2,10.5h-6.2c-1-4.9,0-9.9,2.5-14c2-3.3,5-6.1,8.8-7.8
			c0.1-0.1,0.3-0.1,0.4-0.2c2.1-0.9,4.3-1.4,6.5-1.5c3.2-0.2,6.4,0.4,9.2,1.7c0,0,0.1,0,0.1,0.1c2,0.9,3.9,2.2,5.5,3.8
			c1.7,1.7,3.1,3.7,4.2,6c0.4,0.8,0.7,1.7,0.9,2.5C537.1,400.2,537.2,403.4,536.6,406.5z"/>
	</g>
	<rect x="418.6" y="410" class="st6" width="43.2" height="6.5"/>
</g>
<g>
	<g>
		<g>
			<path class="st1" d="M275.7,314.3c-0.6,0-1.1-0.1-1.5-0.3c-0.4-0.2-0.7-0.5-0.9-0.9c-0.2-0.4-0.3-0.9-0.3-1.5v-6
				c0-0.7-0.1-1.3-0.4-1.6c-0.3-0.3-0.8-0.5-1.5-0.5c-0.2,0-0.4-0.1-0.6-0.3c-0.1-0.2-0.2-0.4-0.2-0.6c0-0.2,0.1-0.4,0.2-0.6
				s0.3-0.2,0.6-0.3c0.7,0,1.3-0.2,1.5-0.5c0.3-0.3,0.4-0.9,0.4-1.6v-6c0-0.9,0.2-1.5,0.7-2c0.5-0.5,1.1-0.7,2-0.7h1.8
				c0.3,0,0.5,0.1,0.7,0.2c0.2,0.2,0.3,0.4,0.3,0.6c0,0.2-0.1,0.4-0.2,0.6c-0.1,0.2-0.3,0.2-0.6,0.2h-1.3c-0.4,0-0.7,0.1-0.8,0.3
				c-0.2,0.2-0.3,0.5-0.3,0.9v6c0,0.5-0.1,1-0.3,1.4c-0.2,0.4-0.5,0.8-0.8,1c-0.4,0.2-0.8,0.4-1.2,0.4v-0.1c0.5,0,0.9,0.1,1.2,0.4
				c0.4,0.2,0.6,0.6,0.8,1s0.3,0.9,0.3,1.4v6c0,0.4,0.1,0.7,0.3,0.9c0.2,0.2,0.5,0.3,0.8,0.3h1.3c0.2,0,0.4,0.1,0.6,0.3
				c0.1,0.2,0.2,0.4,0.2,0.6s-0.1,0.4-0.3,0.6c-0.2,0.2-0.4,0.3-0.7,0.3H275.7z"/>
			<path class="st1" d="M286.2,314.3c-0.3,0-0.5-0.1-0.7-0.3c-0.2-0.2-0.3-0.4-0.3-0.6s0.1-0.4,0.2-0.6c0.1-0.2,0.3-0.3,0.6-0.3h1.3
				c0.4,0,0.7-0.1,0.9-0.3c0.2-0.2,0.3-0.5,0.3-0.9v-6c0-0.5,0.1-1,0.3-1.4s0.5-0.8,0.9-1c0.4-0.2,0.8-0.4,1.2-0.4v0.1
				c-0.5,0-0.9-0.1-1.2-0.4c-0.4-0.2-0.6-0.6-0.9-1c-0.2-0.4-0.3-0.9-0.3-1.4v-6c0-0.4-0.1-0.7-0.3-0.9c-0.2-0.2-0.5-0.3-0.9-0.3
				h-1.3c-0.2,0-0.4-0.1-0.6-0.2c-0.1-0.2-0.2-0.4-0.2-0.6c0-0.2,0.1-0.4,0.3-0.6c0.2-0.2,0.4-0.2,0.7-0.2h1.8c0.6,0,1,0.1,1.4,0.3
				s0.7,0.5,0.9,0.9c0.2,0.4,0.3,0.9,0.3,1.5v6c0,0.7,0.1,1.3,0.4,1.6c0.3,0.3,0.8,0.5,1.5,0.5c0.2,0,0.4,0.1,0.6,0.3
				c0.1,0.2,0.2,0.4,0.2,0.6c0,0.2-0.1,0.4-0.2,0.6c-0.1,0.2-0.3,0.3-0.6,0.3c-0.7,0-1.3,0.2-1.5,0.5c-0.3,0.3-0.4,0.9-0.4,1.6v6
				c0,0.9-0.2,1.5-0.7,2c-0.4,0.5-1.1,0.7-2,0.7H286.2z"/>
		</g>
	</g>
	<g>
		<rect x="269" y="339.1" class="st1" width="20.5" height="9.8"/>
		<rect x="269" y="356.2" class="st1" width="20.5" height="9.8"/>
		<rect x="269" y="373.3" class="st2" width="20.5" height="9.8"/>
		<rect x="269" y="390.5" class="st2" width="20.5" height="9.8"/>
		<rect x="269" y="407.6" class="st2" width="20.5" height="9.8"/>
		<rect x="269" y="424.7" class="st2" width="20.5" height="9.8"/>
		<rect x="269" y="441.8" class="st2" width="20.5" height="9.8"/>
	</g>
</g>
<path class="st2" d="M312.4,39c0-0.1,0-0.2,0-0.2c0-0.1,0-0.2,0-0.2c1.2-0.6,2.5-1.2,3.7-2c1.3-0.9,2.7-2,3.9-3.2l-0.3-1.1
	c-0.3-1.2-0.7-2.4-1.1-3.5c-0.2-0.6-0.5-1.1-0.8-1.7c-0.2-0.6-0.6-1.1-0.9-1.6l-0.6-0.9c-1.7,0-3.4,0.2-5,0.5
	c-1.4,0.3-2.8,0.7-4.1,1.2l-0.3-0.3c0.5-1.3,0.9-2.7,1.2-4.1c0.3-1.6,0.5-3.3,0.5-5l-0.9-0.6c-0.5-0.3-1.1-0.6-1.6-0.9
	c-0.6-0.3-1.1-0.6-1.7-0.8c-1.2-0.4-2.3-0.9-3.5-1.1l-1.1-0.3c-1.2,1.2-2.3,2.6-3.2,3.9c-0.8,1.2-1.5,2.5-2,3.7c-0.1,0-0.2,0-0.2,0
	c-0.1,0-0.2,0-0.2,0c-0.6-1.3-1.2-2.5-2-3.7c-0.9-1.3-2-2.7-3.2-3.9l-1.1,0.3c-1.2,0.3-2.4,0.7-3.5,1.1c-0.6,0.2-1.1,0.5-1.7,0.8
	c-0.6,0.2-1.1,0.6-1.6,0.9l-0.9,0.6c0,1.7,0.2,3.4,0.5,5c0.3,1.4,0.7,2.8,1.2,4.1c-0.1,0.1-0.2,0.2-0.3,0.3
	c-1.3-0.5-2.7-0.9-4.1-1.2c-1.6-0.3-3.3-0.5-5-0.5l-0.6,0.9c-0.3,0.5-0.6,1.1-0.9,1.6c-0.3,0.6-0.5,1.1-0.8,1.7
	c-0.4,1.2-0.9,2.3-1.1,3.5l-0.3,1.1c1.2,1.2,2.6,2.3,3.9,3.2c1.2,0.8,2.5,1.5,3.7,2c0,0.1,0,0.2,0,0.2c0,0.1,0,0.2,0,0.2
	c-1.2,0.6-2.5,1.2-3.7,2c-1.3,0.9-2.7,2-3.9,3.2l0.3,1.1c0.3,1.2,0.7,2.4,1.1,3.5c0.2,0.6,0.5,1.1,0.8,1.7c0.3,0.6,0.6,1.1,0.9,1.6
	l0.6,0.9c1.7,0,3.4-0.2,5-0.5c1.4-0.3,2.8-0.7,4.1-1.2c0.1,0.1,0.2,0.2,0.3,0.3c-0.5,1.3-0.9,2.7-1.2,4.1c-0.3,1.6-0.5,3.3-0.5,5
	l0.9,0.6c0.5,0.3,1.1,0.6,1.6,0.9c0.6,0.3,1.1,0.6,1.7,0.8c1.2,0.4,2.3,0.9,3.5,1.1l1.1,0.3c1.2-1.2,2.3-2.6,3.2-3.9
	c0.8-1.2,1.5-2.5,2-3.7c0.1,0,0.2,0,0.2,0c0.1,0,0.2,0,0.2,0c0.6,1.3,1.2,2.5,2,3.7c0.9,1.3,2,2.7,3.2,3.9l1.1-0.3
	c1.2-0.3,2.4-0.7,3.5-1.1c0.6-0.2,1.1-0.5,1.7-0.8c0.6-0.2,1.1-0.6,1.6-0.9l0.9-0.6c0-1.7-0.2-3.4-0.5-5c-0.3-1.4-0.7-2.8-1.2-4.1
	c0.1-0.1,0.2-0.2,0.3-0.3c1.3,0.5,2.7,0.9,4.1,1.2c1.6,0.3,3.3,0.5,5,0.5l0.6-0.9c0.3-0.5,0.6-1.1,0.9-1.6c0.3-0.6,0.6-1.1,0.8-1.7
	c0.4-1.2,0.9-2.3,1.1-3.5l0.3-1.1c-1.2-1.2-2.6-2.3-3.9-3.2C314.9,40.2,313.6,39.6,312.4,39z M294.4,47.4c-4.7,0-8.6-3.8-8.6-8.6
	c0-4.7,3.8-8.6,8.6-8.6c4.7,0,8.6,3.8,8.6,8.6C303,43.5,299.1,47.4,294.4,47.4z"/>
<g>
	<g>
		<rect x="183.1" y="27.1" class="st1" width="11.3" height="51.1"/>
		<rect x="166.3" y="49.6" class="st1" width="12.2" height="28.6"/>
		<rect x="149.5" y="58.8" class="st2" width="12.2" height="19.4"/>
	</g>
	<g>
		<g>
			<line class="st8" x1="147.3" y1="70.1" x2="145.3" y2="70.1"/>
			<line class="st16" x1="141.4" y1="70.1" x2="127.9" y2="70.1"/>
			<polyline class="st8" points="125.9,70.1 123.9,70.1 123.9,72.1 			"/>
			<line class="st17" x1="123.9" y1="75.9" x2="123.9" y2="112"/>
			<polyline class="st8" points="123.9,113.9 123.9,115.9 125.9,115.9 			"/>
			<line class="st18" x1="130.2" y1="115.9" x2="145.3" y2="115.9"/>
			<line class="st8" x1="147.5" y1="115.9" x2="149.5" y2="115.9"/>
		</g>
	</g>
	<g>
		<rect x="153.3" y="113.6" class="st1" width="32.2" height="5.8"/>
		<rect x="153.3" y="124.3" class="st1" width="22.3" height="5.8"/>
		<rect x="153.3" y="134.9" class="st1" width="28.2" height="5.8"/>
		<rect x="187.3" y="134.9" class="st2" width="6.6" height="5.8"/>
		<rect x="199.9" y="134.9" class="st2" width="24.2" height="5.8"/>
		<rect x="182.7" y="124.3" class="st2" width="41.4" height="5.8"/>
		<rect x="191.9" y="113.6" class="st2" width="32.2" height="5.8"/>
	</g>
</g>
<g>
	<rect x="47.5" y="68.4" class="st2" width="17.4" height="8.3"/>
	<rect x="47.5" y="82.9" class="st2" width="17.4" height="8.3"/>
	<rect x="47.5" y="97.4" class="st2" width="17.4" height="8.3"/>
	<rect x="47.5" y="111.9" class="st2" width="17.4" height="8.3"/>
	<rect x="47.5" y="126.5" class="st1" width="17.4" height="8.3"/>
	<rect x="47.5" y="141" class="st1" width="17.4" height="8.3"/>
	<rect x="47.5" y="155.5" class="st1" width="17.4" height="8.3"/>
</g>
</svg>
