<?xml version="1.0" encoding="utf-8"?>
<!-- Generator: Adobe Illustrator 25.4.1, SVG Export Plug-In . SVG Version: 6.00 Build 0)  -->
<svg version="1.1" id="Capa_1" xmlns="http://www.w3.org/2000/svg" xmlns:xlink="http://www.w3.org/1999/xlink" x="0px" y="0px"
	 viewBox="0 0 400 400" style="enable-background:new 0 0 400 400;" xml:space="preserve">
<style type="text/css">
	.st0{fill:#FECB00;}
</style>
<path class="st0" d="M97.6,392c-4.8-2.7-6.3-5.5-5.3-9.5c0.9-3.4,3.8-5.4,8-5.4c7.5,0,14.9,0,22.5,0c0.3-3.1,0.2-6,0.7-8.8
	c2-10.5,10-17.7,20.7-18.4c6-0.4,12-0.1,18-0.3c1.1,0,2.5-0.9,3-1.8c0.7-1.2,0.8-2.8,1.2-4.3c2.4-10.2,4.8-20.3,7.3-31.1
	c-1.8,0-3.3,0-4.8,0c-36.8,0-73.6,0-110.4,0c-15,0-26.4-7.5-30.7-20.5c-1.2-3.7-1.8-7.8-1.8-11.7C26,217.1,26.2,154,26,90.9
	c-0.1-19.6,14.9-32.5,32.5-32.4c65.5,0.4,131,0.1,196.5,0.2c3.1,0,4.9-0.9,6.6-3.5c7.3-11.2,14.5-22.4,22.4-33.2
	c7.5-10.3,18.2-14.7,30.8-12.8c13.2,2,22.2,9.7,26.4,22.4c2.6,7.7,2,15.5-1.1,23c-0.5,1.1-1,2.2-1.7,3.8c2.1,0.1,3.8,0.2,5.5,0.3
	c15.3,0.7,27.3,12.1,28.8,27.3c0.2,1.7,0.3,3.5,0.3,5.2c0,62.9,0,125.8,0,188.6c0,16.2-8.7,28.1-23.2,31.6c-3.4,0.8-6.9,1-10.4,1
	c-36.3,0.1-72.6,0-108.9,0c-1.5,0-3,0-5,0c0.7,3.3,1.3,6.3,2,9.2c1.9,8.1,4,16.2,5.8,24.4c0.6,3,1.9,3.8,4.8,3.7
	c4.4-0.2,8.7-0.1,13.1-0.1c15.5,0,24.7,9.1,24.9,24.5c0,0.7,0,1.5,0,2.8c4.2,0,8.2,0,12.3,0c3.1,0,6.2,0,9.4,0
	c5.2,0,8.1,1.8,9.1,5.4c1.1,4-0.5,6.8-5.3,9.5C233.4,392,165.5,392,97.6,392z M249.1,73.6c-2.1,0-3.3,0-4.5,0c-62,0-124,0-186,0
	C46.9,73.6,41,79.5,41,91.1c0,45.5,0,91.1,0,136.6c0,1.3,0,2.7,0,4.4c7.2,0,13.9-0.1,20.6,0c5.1,0.1,8.4,3.4,8.2,7.8
	c-0.2,4.3-3.3,7-8.4,7.2c-2.7,0.1-5.5,0-8.2,0c-3.9,0-7.9,0-12,0c-0.1,1.5-0.3,2.4-0.3,3.4c0,10.1-0.1,20.2,0,30.3
	c0.1,10.5,6.3,16.7,16.9,16.7c94.3,0,188.6,0,282.9,0c10.8,0,16.9-6.2,17-17c0.1-9.5,0-19,0-28.4c0-5,0-5-5.1-5
	c-75.5,0-150.9,0-226.4,0c-1.6,0-3.3,0.1-4.9-0.1c-3.7-0.4-6.4-3.3-6.6-6.9c-0.2-3.6,2.2-6.8,5.9-7.6c1.8-0.4,3.7-0.4,5.6-0.4
	c75.5,0,150.9,0,226.4,0c1.6,0,3.1,0,5.1,0c0-1.8,0-3,0-4.2c0-45.5,0-91.1,0-136.6c0-1.4,0-2.7-0.2-4.1c-1-7.7-6.8-13.1-14.6-13.5
	c-4.1-0.2-8.2,0.1-12.3-0.1c-3.3-0.2-5.5,0.9-7.6,3.5c-20.9,25.6-41.8,51.2-62.9,76.7c-1.9,2.3-2.9,4.3-1.9,7.3
	c0.9,2.7,1,5.6,1.2,8.5c1.3,19.8-12.3,36.4-31.8,38.4c-7,0.7-14.2,0.1-21.3,0c-9.5-0.1-18.2,1.9-25.5,8.6c-4.5,4.1-10.6,2-12.3-3.9
	c-3.2-11.6-5.2-23.4-5-35.4c0.5-30.9,18.2-49.6,48.5-51.8c1.3-0.1,2.9-1.2,3.7-2.3c4.8-6.8,9.4-13.8,14-20.8
	C236.1,93,242.3,83.7,249.1,73.6z M251.2,97.5c7.6,5.7,14.9,11,22.4,16.6c2.5-3.1,4.8-5.9,7.1-8.6c14.1-17.1,28.1-34.3,42.2-51.4
	c4.4-5.3,6.1-11.1,4-17.7c-2.2-6.9-7.1-11.1-14.2-12.2c-7.3-1.1-13.3,1.6-17.5,7.7C287,43.7,279,55.9,270.9,68
	C264.4,77.7,257.9,87.4,251.2,97.5z M180.6,197.3c6.4-1.4,12.5-3.3,18.7-3.9c7.4-0.6,14.9,0.1,22.4,0c5.8,0,11.4-1,15.9-5.2
	c8.4-7.6,8.2-18.6,5.3-26.9c-0.3-0.9-1.3-1.7-2.2-2.4c-7.7-5.7-15.4-11.5-23.1-17.1c-0.9-0.6-1.9-1.3-2.9-1.4
	c-12.8-1.6-27.5,6.9-32.4,18.9C177.1,172,178.3,185,180.6,197.3z M260.6,376.9c0.8-9.4-1.7-12.3-10.6-12.3c-33.9,0-67.8,0-101.7,0
	c-8.3,0-11.3,3.8-9.7,12.3C179.1,376.9,219.7,376.9,260.6,376.9z M180.4,349.3c13,0,25.3,0,38.1,0c-3-12.5-5.8-24.5-8.7-36.7
	c-6.9,0-13.6,0-20.6,0C186.2,324.8,183.3,336.8,180.4,349.3z M247.7,145.5c5.5-6.7,10.8-13.1,16.3-19.9c-7.1-5.3-14-10.4-21.2-15.7
	c-4.9,7.3-9.5,14.2-14.3,21.3C234.9,136,241.1,140.6,247.7,145.5z"/>
<path class="st0" d="M92.2,247c-4.1-0.1-7.3-3.4-7.3-7.4c0-4,3.4-7.4,7.4-7.4c4.2,0,7.6,3.5,7.5,7.7C99.7,243.9,96.4,247,92.2,247z"
	/>
</svg>
