<?xml version="1.0" encoding="utf-8"?>
<!-- Generator: Adobe Illustrator 25.4.1, SVG Export Plug-In . SVG Version: 6.00 Build 0)  -->
<svg version="1.1" id="Capa_1" xmlns="http://www.w3.org/2000/svg" xmlns:xlink="http://www.w3.org/1999/xlink" x="0px" y="0px"
	 viewBox="0 0 400 400" style="enable-background:new 0 0 400 400;" xml:space="preserve">
<style type="text/css">
	.st0{fill:#FECB00;}
</style>
<path class="st0" d="M362.1,122.6c-107.9,0-215.4,0-323.4,0c0,1.4,0,2.8,0,4.1c0,75.6,0,151.2,0,226.9c0,7,1.5,8.5,8.6,8.5
	c102.1,0,204.1,0,306.2,0c7.1,0,8.6-1.5,8.6-8.5c0-42.2,0-84.4,0-126.5c0-1.4-0.1-2.8,0.2-4.1c0.6-2.9,2.6-4.5,5.6-4.6
	c3.1-0.1,5.3,1.4,6,4.5c0.3,1.2,0.2,2.5,0.2,3.7c0,42.7,0,85.4,0,128c0,12.3-7.2,19.5-19.6,19.5c-102.7,0-205.4,0-308.1,0
	c-12.6,0-19.7-7.1-19.7-19.7c0-102.7,0-205.4,0-308.1c0-12.4,7.1-19.6,19.4-19.6c102.8,0,205.6,0,308.4,0c12.4,0,19.5,7.1,19.5,19.5
	c0,40.7,0,81.4-0.1,122c0,2.3-0.7,5.2-2.2,6.7c-1.2,1.2-4.2,1.3-6.2,0.8c-2.8-0.6-3.5-3.2-3.5-5.9c0-11.5,0-23,0-34.4
	C362.1,131.2,362.1,127.1,362.1,122.6z M362.1,110.3c0-1.6,0-3,0-4.3c0-19.5,0-38.9,0-58.4c0-7.6-1.4-9-8.9-9
	c-75.6,0-151.2,0-226.8,0c-26.8,0-53.7,0-80.5,0c-5.2,0-7.2,1.9-7.2,6.8c0,21,0,41.9,0,62.9c0,0.6,0.1,1.2,0.1,1.9
	C146.5,110.3,254,110.3,362.1,110.3z"/>
<path class="st0" d="M117.2,236.3c12.5,9.7,24.5,19,36.5,28.3c3.5,2.8,7.1,5.5,10.6,8.2c3.4,2.7,4.1,6,1.7,9
	c-2.2,2.8-5.5,3.1-8.9,0.5c-11.4-8.7-22.7-17.6-34-26.4c-6.1-4.7-12.2-9.5-18.3-14.3c-4.2-3.3-4.6-7.3-0.5-10.6
	c17.6-13.9,35.4-27.6,53.1-41.3c2.9-2.2,6.8-1.6,8.7,1c2,2.7,1.2,6.4-2,8.9c-14.4,11.2-28.8,22.3-43.1,33.5
	C119.9,234.1,118.8,235,117.2,236.3z"/>
<path class="st0" d="M283.5,236.2c-15-11.6-29.5-22.9-44.1-34.2c-1.3-1-2.6-1.9-3.8-3c-2.7-2.3-3.1-5.5-1-8.3c1.9-2.6,5-3.3,7.9-1.3
	c3.2,2.2,6.2,4.7,9.2,7c14.6,11.3,29.1,22.6,43.7,34c5.1,3.9,5.1,7.7-0.1,11.8c-17,13.3-34,26.5-51.1,39.7c-3.9,3-7.3,3-9.5,0.1
	c-2.3-3-1.5-6.6,2.4-9.6c14-10.9,28-21.7,42-32.5C280.4,238.8,281.8,237.7,283.5,236.2z"/>
<path class="st0" d="M219.6,181.6c-0.9,3.8-1.9,8.2-3,12.5c-7.9,32.3-15.8,64.5-23.7,96.8c-0.1,0.6-0.3,1.2-0.4,1.8
	c-1.1,3.4-4,5.2-7.2,4.5c-2.9-0.7-4.8-3.9-4-7.4c2.5-10.8,5.2-21.5,7.8-32.3c6.2-25.6,12.5-51.3,18.7-76.9c1-4,3.3-6,6.7-5.6
	C217.4,175.4,219.5,177.9,219.6,181.6z"/>
<path class="st0" d="M374,197.4c0,1.1,0.1,2.2,0,3.3c-0.3,3.4-2.5,5.5-5.8,5.5c-3.5,0-5.8-2.1-6-5.7c-0.1-2-0.1-4,0-6
	c0.1-4,2.3-6.2,5.9-6.3c3.6,0,5.9,2.2,6.1,6.1C374.1,195.4,374,196.4,374,197.4C374,197.4,374,197.4,374,197.4z"/>
<path class="st0" d="M146.4,50.6c25.3,0,50.6,0,76,0c12.9,0,19.8,7,19.9,19.9c0,3.2,0,6.5,0,9.7c-0.2,10.7-7.5,18.1-18.2,18.2
	c-7.6,0.1-15.2,0-22.8,0c-43.4,0-86.8,0-130.2,0c-13.6,0-20.4-6.8-20.4-20.5c0-2.9,0-5.7,0-8.6C50.7,58,58,50.6,69.3,50.6
	C95,50.6,120.7,50.6,146.4,50.6z M146,86.5c4.6,0,9.2,0,13.8,0c20.9,0,41.9,0,62.8,0c5.7,0,7.5-1.9,7.6-7.7c0-2.4,0-4.7,0-7.1
	c0-7.9-1.3-9.2-9-9.2c-49.9,0-99.7,0-149.6,0c-1,0-2,0-3,0c-3.9,0.2-5.9,2.2-6,6.1c-0.1,2.4,0,4.7,0,7.1c0,9.9,0.7,10.7,10.5,10.7
	C97.4,86.5,121.7,86.5,146,86.5z"/>
<path class="st0" d="M266.2,86.5c-6.5,0-11.9-5.4-11.9-11.9c0-6.7,5.5-12.1,12.2-12c6.5,0.1,11.8,5.6,11.7,12.1
	C278.1,81.2,272.7,86.5,266.2,86.5z"/>
<path class="st0" d="M302.1,62.6c6.5,0,12,5.3,12,11.8c0.1,6.7-5.4,12.2-12.1,12.1c-6.5-0.1-11.9-5.5-11.8-12
	C290.2,68,295.5,62.6,302.1,62.6z"/>
<path class="st0" d="M338.1,86.5c-6.5,0-11.9-5.4-12-11.8c-0.1-6.7,5.4-12.2,12.1-12.1c6.5,0.1,11.8,5.5,11.8,12
	C350,81.1,344.6,86.5,338.1,86.5z"/>
</svg>
