<?xml version="1.0" encoding="utf-8"?>
<!-- Generator: Adobe Illustrator 25.4.1, SVG Export Plug-In . SVG Version: 6.00 Build 0)  -->
<svg version="1.1" id="Capa_1" xmlns="http://www.w3.org/2000/svg" xmlns:xlink="http://www.w3.org/1999/xlink" x="0px" y="0px"
	 viewBox="0 0 400 400" style="enable-background:new 0 0 400 400;" xml:space="preserve">
<style type="text/css">
	.st0{fill:#FECB00;}
</style>
<path class="st0" d="M302.7,16.5c7.9,1.6,15.3,4.2,21.6,9.5c6.3,5.5,10.5,12.2,12.8,20.2c3.8,12.9,7.5,25.8,11.3,38.7
	c2.1,7.2,0.5,10.2-6.7,12.2c-38.1,11-76.1,22-114.2,33.1c-37.4,10.8-74.8,21.6-112.1,32.5c-1.1,0.3-2.1,0.8-3.1,1.7
	c1.3,0,2.5,0,3.8,0c78,0,155.9,0,233.9,0c1.5,0,3.1,0,4.6,0.1c3.3,0.4,5.5,2.2,6.1,5.6c0.3,1.4,0.4,2.8,0.4,4.3
	c0,55.6,0,111.1,0,166.7c0,17.3-7.5,30.4-23.2,37.9c-4.8,2.3-10.5,3.6-15.8,3.7c-28.5,0.4-57,0.2-85.5,0.2c-5.2,0-8.4-2.9-8.3-7.3
	c0.1-4.3,3.3-7,8.6-7c27.7,0,55.3,0,83,0c13.1,0,22.7-7.1,26-19.3c0.7-2.6,0.9-5.4,0.9-8.1c0.1-30.6,0-61.3,0-91.9
	c0-1-0.1-2.1-0.2-3.4c-93.3,0-186.5,0-280,0c0,1.4,0,2.7,0,4c0,30.3,0,60.6,0,90.8c0,17.3,10.6,27.8,27.9,27.8c26.6,0,53.2,0,79.8,0
	c1,0,1.9,0,2.9,0c4.9,0.2,8.2,3.1,8.1,7.3c-0.1,4-3.3,7-8,7c-29.1,0-58.2,0.3-87.3-0.1c-20.7-0.3-37.5-18.2-37.6-39.3
	c-0.2-29.4-0.1-58.9-0.1-88.3c0-26.3,0-52.7,0-79c0-2.2-0.3-4.5-0.9-6.7c-3.5-12.4-7.1-24.7-10.7-37.1c-6.5-22.8,5.1-44,27.8-50.6
	C141,60.5,213.6,39.5,286.2,18.5c2.4-0.7,4.8-1.3,7.2-2C296.5,16.5,299.6,16.5,302.7,16.5z M253.2,42.8c0.4,0.8,0.5,1,0.7,1.2
	c16.6,15.9,33.1,31.9,49.7,47.8c0.6,0.5,1.7,1,2.4,0.8c9-2.5,18-5.1,27.6-7.9c-4.1-13.3-7.4-26.6-12.2-39.3
	c-3.9-10.2-16.1-16.6-26.3-14.2C281.1,34.5,267.4,38.8,253.2,42.8z M126.9,144.5c-0.1-0.5-0.1-0.7-0.2-0.7
	c-16.7-16.1-33.4-32.2-50.2-48.3C76,95,75,94.6,74.3,94.7c-15.8,3.5-23.4,17.4-20.8,29.1c2.7,12.2,6.6,24.1,10,36.1
	c0.2,0.9,0.6,1.7,1,2.7C85.4,156.5,106.1,150.5,126.9,144.5z M284,231c21.2,0,41.8,0,62.6,0c0-17.5,0-34.7,0-52.2
	c-10.5,0-20.7,0-30.9,0.1c-0.8,0-1.9,0.9-2.4,1.6C303.5,197.1,293.9,213.8,284,231z M66.8,178.9c0,17.6,0,34.9,0,52.3
	c9.8,0,19.5-0.1,29.1,0.1c2.5,0,3.8-0.9,5-3c8.8-15.4,17.7-30.7,26.5-46.1c0.6-1,1-2,1.7-3.4C108.1,178.9,87.5,178.9,66.8,178.9z
	 M288.6,97.7c-0.6-0.8-0.8-1.1-1-1.4c-16.4-15.8-32.8-31.6-49.3-47.2c-0.8-0.8-2.8-1-4.1-0.6c-10.7,2.9-21.3,6.1-31.9,9.2
	c-0.9,0.3-1.8,0.7-3.1,1.2c17.1,16.4,33.8,32.5,50.6,48.5c0.6,0.5,1.7,0.9,2.5,0.7C264.3,104.7,276.3,101.2,288.6,97.7z
	 M234.6,113.3c-0.2-0.6-0.3-0.7-0.3-0.8c-16.6-16-33.3-32.1-50-48.1c-0.7-0.7-2.4-0.8-3.5-0.5c-5.3,1.4-10.5,3-15.8,4.5
	c-6.4,1.9-12.9,3.7-19.3,5.6c0.1,0.5,0.1,0.7,0.2,0.8c16.6,16.1,33.3,32.1,49.9,48.1c0.6,0.6,2,1,2.8,0.7
	C210.6,120.3,222.5,116.8,234.6,113.3z M180.9,128.8c-0.4-0.6-0.5-0.9-0.8-1.2c-16.5-15.9-33-31.7-49.6-47.5
	c-0.8-0.7-2.6-0.9-3.7-0.6c-7.9,2.2-15.8,4.5-23.7,6.8c-3.8,1.1-7.6,2.2-12.4,3.6c1.7,1.3,2.7,2,3.5,2.8
	c12.9,12.4,25.8,24.8,38.7,37.1c3.3,3.2,6.3,8.1,10.2,9.1c4.1,1,9.1-1.9,13.6-3.2C164.9,133.6,172.8,131.2,180.9,128.8z
	 M172.1,230.9c0.7,0.2,1,0.3,1.3,0.3c11.9,0,23.8,0.1,35.7-0.1c1.2,0,2.9-1.4,3.6-2.6c9.1-15.5,18-31,27-46.6c0.5-0.9,0.9-1.8,1.5-3
	c-1.4-0.1-2.5-0.2-3.5-0.2c-10.8,0-21.7,0.1-32.5-0.1c-2.5,0-3.8,0.9-5,3c-8.8,15.4-17.7,30.7-26.5,46.1
	C173.2,228.7,172.7,229.8,172.1,230.9z M227.9,231.2c12.5,0,24.3-0.1,36.1,0.1c2.5,0,3.8-0.8,5-2.9c8.8-15.4,17.7-30.8,26.5-46.1
	c0.6-1,1.1-2,1.8-3.3c-1.4-0.1-2.3-0.2-3.2-0.2c-11,0-21.9,0.1-32.9-0.1c-2.4,0-3.6,0.8-4.7,2.8c-8.8,15.5-17.8,31-26.8,46.4
	C229.2,228.8,228.7,229.7,227.9,231.2z M185.4,178.7c-12.9,0-25.2-0.1-37.4,0.1c-1.1,0-2.7,1.3-3.3,2.5
	c-9.2,15.7-18.3,31.5-27.4,47.3c-0.4,0.8-0.7,1.6-1.2,2.7c12.3,0,24.2-0.1,36.1,0.1c2.4,0,3.6-0.8,4.7-2.8
	c8.8-15.5,17.8-30.9,26.7-46.4C184.1,181.2,184.5,180.3,185.4,178.7z"/>
<path class="st0" d="M178.9,306.4c0-11.6,0-23.1,0-34.7c0-7.8,5.4-10.9,12.2-7c20,11.5,40,23.1,60,34.6c6.6,3.8,6.6,10.1,0.1,13.9
	c-20.1,11.7-40.2,23.2-60.3,34.8c-6.6,3.8-12,0.6-12-6.9C178.9,329.5,178.9,318,178.9,306.4z M234.6,306.3
	c-14.1-8.1-27.6-15.9-41.1-23.7c0,16,0,31.5,0,47.4C207.3,322.1,220.6,314.4,234.6,306.3z"/>
<path class="st0" d="M206.5,382.7c-3.8-0.1-7-3.4-6.9-7.2c0.1-3.8,3.4-7.1,7.1-7c3.8,0.1,7.1,3.5,7,7.2
	C213.7,379.5,210.3,382.8,206.5,382.7z"/>
</svg>
